<svg width="98" height="93" viewBox="0 0 98 93" fill="none" xmlns="http://www.w3.org/2000/svg">
<path d="M25.4094 5.92672C26.5877 5.87396 27.722 6.41034 28.7332 7.28965C28.909 7.43913 29.0585 7.6062 29.2256 7.77327C32.9539 11.5015 36.6909 15.2386 40.4192 18.9668C40.7269 19.2746 41.0259 19.5823 41.2809 19.9253C43.6286 22.9853 41.914 27.3115 38.1154 27.9358C36.7349 28.1644 35.4951 27.839 34.3783 27.0389C33.9826 26.7575 33.6221 26.4234 33.2792 26.0804C29.5421 22.3522 25.8139 18.6239 22.0768 14.8869C21.5493 14.3593 21.0656 13.7877 20.7315 13.1107C19.351 10.2881 20.837 6.95551 23.8442 6.0762C24.3015 5.9531 24.7587 5.93552 25.4094 5.92672Z" fill="#081812"/>
<path d="M20.3798 20.2155C21.7779 20.1979 22.9561 20.7079 23.941 21.6927C25.4797 23.2315 27.0273 24.7791 28.5661 26.3179C31.0018 28.7535 33.4287 31.1892 35.8731 33.6161C36.3656 34.1085 36.77 34.6449 37.069 35.2868C38.388 38.0918 36.6821 41.5826 33.5078 42.2157C31.7668 42.5674 30.2808 42.075 28.9794 40.9143C28.8475 40.8 28.7332 40.6769 28.6101 40.5538C24.7763 36.72 20.9425 32.8863 17.1087 29.0525C16.7219 28.6656 16.3525 28.2699 16.0712 27.7951C14.3213 24.823 15.9481 21.0596 19.3598 20.3122C19.6851 20.2331 20.0368 20.2418 20.3798 20.2155Z" fill="#081812"/>
<path d="M39.5573 0.94104C40.9993 0.967419 42.1424 1.40707 43.1097 2.32155C43.1712 2.3831 43.2328 2.44465 43.2943 2.50621C47.2688 6.48067 51.2433 10.4639 55.2265 14.4296C56.1674 15.3617 56.7037 16.4872 56.7741 17.7885C56.8444 19.0372 56.4839 20.1803 55.6925 21.1563C53.7932 23.5128 50.4079 23.7327 48.236 21.6223C46.794 20.2242 45.3871 18.791 43.9714 17.3665C41.395 14.7901 38.8187 12.2137 36.2423 9.63738C35.4509 8.846 34.9321 7.91394 34.7123 6.80601C34.5013 5.74205 34.6595 4.73085 35.1256 3.78999C36.0488 1.92586 37.5964 1.00259 39.5573 0.94104Z" fill="#081812"/>
<path d="M33.3583 62.5365C32.0218 62.5189 30.8963 62.088 29.9378 61.2175C29.7884 61.0856 29.6477 60.9361 29.507 60.7954C25.6556 56.9441 21.7955 53.0839 17.9441 49.2325C17.4517 48.7401 17.012 48.2213 16.7043 47.597C15.2183 44.581 17.1791 41.2045 20.0544 40.5538C21.7867 40.1669 23.2815 40.6066 24.618 41.7321C24.7939 41.8815 24.9522 42.0486 25.1105 42.2157C28.9442 46.0495 32.778 49.8832 36.6118 53.717C36.9195 54.0248 37.2273 54.3237 37.4559 54.6842C38.555 56.3725 38.6782 58.1311 37.7197 59.8985C36.7964 61.6308 35.284 62.4925 33.3583 62.5365Z" fill="#081812"/>
<path d="M72.8744 44.0622C71.4499 44.0007 70.2805 43.5346 69.2868 42.6202C69.1374 42.4883 68.9967 42.3476 68.856 42.1981C65.1189 38.461 61.3907 34.7328 57.6536 30.9957C57.2843 30.6264 56.9502 30.2395 56.6512 29.8175C54.7079 27.0476 56.0972 22.9061 59.6584 22.1587C61.4786 21.7806 63.0174 22.2994 64.31 23.5656C66.3588 25.5704 68.3724 27.6192 70.4036 29.6504C72.2501 31.4969 74.0967 33.3435 75.9432 35.19C76.2685 35.5154 76.5587 35.8671 76.8489 36.2276C78.2558 38.0478 77.948 40.9319 76.418 42.4795C75.398 43.5083 74.2022 43.9919 72.8744 44.0622Z" fill="#081812"/>
<path d="M41.4214 41.2924C42.7404 41.31 43.8395 41.8024 44.8068 42.6378C44.8947 42.7081 44.9738 42.796 45.053 42.8752C49.0098 46.832 52.9667 50.7889 56.9236 54.7458C57.2314 55.0536 57.504 55.3789 57.7326 55.7482C59.6319 58.817 57.7589 62.5716 54.5143 63.2047C52.7997 63.5389 51.3136 63.0816 50.0914 61.877C46.0202 57.8322 41.9842 53.7522 37.9042 49.7162C36.427 48.2477 35.7147 45.3284 37.702 42.9895C38.6692 41.8552 39.9706 41.3628 41.4214 41.2924Z" fill="#081812"/>
<path d="M55.9828 36.4651C57.1171 36.5002 58.3129 36.9751 59.3241 37.995C62.7974 41.4947 66.297 44.9767 69.7879 48.4676C70.333 49.0128 70.887 49.5579 71.4322 50.1119C73.5073 52.2222 73.2699 55.7658 70.6935 57.5596C68.7151 58.9313 66.3937 58.7467 64.5648 57.2079C64.4153 57.076 64.2746 56.9353 64.1339 56.7858C60.2386 52.8905 56.3433 48.9952 52.4479 45.0998C51.7005 44.3524 51.1729 43.4907 50.9179 42.4531C50.4783 40.7033 51.2433 38.1006 53.5471 36.9838C54.2505 36.6497 55.0067 36.4739 55.9828 36.4651Z" fill="#081812"/>
<path d="M76.6467 19.0635C76.7786 21.4992 74.9848 23.759 72.0655 24.0316C70.7993 24.1459 69.6298 23.7326 68.6362 22.8973C68.4867 22.7654 68.346 22.6247 68.2053 22.484C64.2133 18.492 60.2212 14.4911 56.2116 10.4991C55.4906 9.78683 54.9981 8.96907 54.8223 7.98425C54.1188 4.02737 57.3547 1.86428 59.9047 2.03135C61.1181 2.11049 62.1821 2.58531 63.0878 3.39427C63.2197 3.50858 63.334 3.63169 63.4571 3.75479C67.2733 7.57098 71.0807 11.3784 74.8968 15.1946C75.1343 15.4408 75.3717 15.6958 75.5915 15.9596C76.3301 16.8652 76.6818 17.9028 76.6467 19.0635Z" fill="#081812"/>
<path d="M13.1518 75.814C13.2133 76.0338 13.4244 76.0954 13.5827 76.2009C15.5171 77.4231 16.2382 79.2345 16.0095 81.4328C15.8073 83.3936 14.9016 84.9764 13.1782 86.014C12.334 86.5239 11.4108 86.8229 10.4084 86.8229C7.51544 86.8229 4.61373 86.8317 1.72081 86.8229C0.911851 86.8229 0.841507 86.7438 0.823921 85.9436C0.815128 85.7326 0.815128 85.5303 0.815128 85.3369C0.815128 79.2345 0.815128 73.1233 0.815128 67.0209C0.815128 66.7044 0.806335 66.3878 0.832714 66.0801C0.859093 65.7635 0.999782 65.6316 1.32513 65.5877C1.49219 65.5701 1.66805 65.5613 1.83512 65.5613C4.24442 65.5613 6.65372 65.5437 9.05423 65.5701C10.1797 65.5789 11.2701 65.8075 12.2813 66.3527C13.4683 66.9946 14.2949 67.9442 14.7345 69.2192C15.2094 70.5909 15.227 71.9714 14.8049 73.3607C14.5499 74.1697 14.1014 74.8556 13.4771 75.4447C13.3628 75.5502 13.2046 75.6293 13.1518 75.814ZM7.33079 83.5959C8.04303 83.5959 8.76406 83.5871 9.4763 83.5959C9.90716 83.6047 10.3292 83.5255 10.7513 83.4288C11.2349 83.3145 11.6482 83.0683 11.9823 82.6902C13.398 81.1074 12.7473 78.5926 10.7513 77.898C10.2589 77.7309 9.74888 77.6605 9.23009 77.6605C7.85837 77.6693 6.47786 77.6605 5.10614 77.6605C4.96545 77.6605 4.81597 77.6605 4.67528 77.6693C4.29718 77.7045 4.19166 77.8188 4.15649 78.2145C4.13891 78.4167 4.1477 78.619 4.1477 78.8124C4.1477 79.6126 4.1477 80.4128 4.1477 81.2217C4.1477 81.591 4.1477 81.9691 4.1477 82.3384C4.13891 83.631 4.13891 83.6047 5.35235 83.5959C6.01183 83.5959 6.67131 83.5959 7.33079 83.5959ZM7.13734 74.5214V74.5126C7.88475 74.5126 8.62337 74.5302 9.37078 74.5038C10.3116 74.4687 10.9799 73.9762 11.4284 73.1673C11.613 72.8331 11.6921 72.4726 11.7361 72.1033C11.9559 70.4063 11.0063 68.9906 9.2125 68.9114C7.72648 68.8499 6.23165 68.8851 4.74563 68.8939C4.27959 68.8939 4.16528 69.0345 4.1477 69.5358C4.13011 70.3095 4.13891 71.0833 4.13891 71.8571C4.13891 72.5694 4.13891 73.2904 4.15649 74.0026C4.16528 74.328 4.31477 74.4599 4.64011 74.495C4.80718 74.5126 4.98304 74.5126 5.1589 74.5126C5.81838 74.5214 6.47786 74.5214 7.13734 74.5214Z" fill="#081812"/>
<path d="M51.2522 82.2768V73.2376C51.2522 73.009 51.2434 72.7803 51.2522 72.5517C51.2786 71.8922 51.3665 71.7779 51.9908 71.7603C52.6503 71.7428 53.3098 71.7516 53.9693 71.7691C54.3474 71.7867 54.4617 71.9362 54.5496 72.2879C54.6463 72.666 54.4089 73.0881 54.7343 73.4222C55.1036 73.2991 55.297 72.9474 55.596 72.7452C56.8886 71.8834 58.2954 71.5053 59.843 71.6636C60.3003 71.7076 60.7575 71.7779 61.1972 71.8922C63.2459 72.4022 64.7144 73.6421 65.6025 75.5501C66.0685 76.5438 66.3235 77.5989 66.3411 78.7069C66.3675 79.9731 66.3059 81.2217 65.8839 82.4439C64.899 85.3192 62.3139 86.9899 59.632 86.9811C58.8846 86.9811 58.146 87.0075 57.4161 86.7789C56.5808 86.5151 55.8158 86.1458 55.1739 85.5479C55.086 85.4687 55.0068 85.3896 54.9189 85.3192C54.7782 85.2049 54.6199 85.2577 54.6024 85.4248C54.5848 85.6798 54.576 85.9436 54.576 86.1986C54.576 88.0363 54.576 89.8653 54.576 91.703C54.576 91.9932 54.5672 92.2746 54.532 92.5647C54.4968 92.8373 54.3561 92.9868 54.0748 92.9868C53.301 93.0044 52.5272 93.0044 51.7534 92.9868C51.4193 92.978 51.305 92.8373 51.2698 92.4944C51.2434 92.213 51.2522 91.9228 51.2522 91.6327C51.2522 88.5287 51.2522 85.3984 51.2522 82.2768ZM63.0261 79.3751C63.0173 79.1201 63.0085 78.8563 62.9821 78.6013C62.8063 76.8164 61.6016 75.471 59.8518 75.0665C59.1044 74.8907 58.3834 74.9171 57.6448 75.0841C56.0005 75.4622 54.7694 76.8427 54.6199 78.5222C54.576 79.0058 54.5848 79.4982 54.6111 79.9819C54.6727 80.8963 55.0508 81.6877 55.6399 82.3824C56.8446 83.798 59.2275 84.1761 60.9949 83.1913C61.8918 82.6989 62.4721 81.9515 62.7975 80.9843C62.9733 80.4655 63.0173 79.9203 63.0261 79.3751Z" fill="#081812"/>
<path d="M26.8076 80.3952C25.2336 80.3952 23.6508 80.3864 22.0769 80.3952C21.2767 80.3952 21.2064 80.5007 21.4878 81.2481C22.0153 82.6374 22.9738 83.5167 24.4598 83.8245C25.3391 84.0091 26.1657 83.8685 26.9834 83.5607C27.5022 83.3673 27.9507 83.0595 28.276 82.6023C28.5398 82.233 28.8739 82.101 29.3048 82.1098C29.9027 82.1274 30.5094 82.1011 31.1074 82.1186C31.7844 82.1362 31.9075 82.356 31.6086 82.9891C31.38 83.4552 31.0986 83.886 30.7644 84.2817C29.1729 86.1459 27.1505 87.0955 24.6884 86.9109C21.2328 86.6383 18.7707 84.44 18.0936 81.0195C17.7419 79.2257 17.9178 77.4847 18.674 75.814C20.0105 72.842 23.2903 71.0921 26.4382 71.7252C29.5686 72.3495 31.4855 74.2576 32.2681 77.3352C32.4439 78.0299 32.5582 78.7421 32.5055 79.4631C32.4967 79.6302 32.4791 79.8061 32.4439 79.9731C32.3912 80.1842 32.2593 80.3336 32.0306 80.36C31.7756 80.3864 31.5118 80.3952 31.2568 80.404C29.7884 80.3952 28.3024 80.3952 26.8076 80.3952ZM25.3391 78.1266C26.2888 78.1266 27.2296 78.1266 28.1793 78.1266C28.4079 78.1266 28.6365 78.1178 28.8651 78.0914C29.0586 78.0738 29.1553 77.9156 29.1201 77.7221C29.0498 77.3176 28.8651 76.9571 28.6629 76.6142C27.4319 74.4863 24.8291 74.0554 22.921 75.348C22.2176 75.8228 21.7428 76.5175 21.479 77.3264C21.2943 77.8892 21.4174 78.0826 21.989 78.1178C22.156 78.1266 22.3319 78.1266 22.5078 78.1266C23.4486 78.1266 24.3983 78.1266 25.3391 78.1266Z" fill="#081812"/>
<path d="M43.2154 80.3952C41.7821 80.3952 40.3488 80.3952 38.9156 80.3952C38.6869 80.3952 38.4583 80.3952 38.2297 80.4128C37.9307 80.4304 37.8252 80.5887 37.9131 80.8788C38.3088 82.2242 39.0826 83.2266 40.4631 83.6838C41.36 83.9828 42.2569 83.9916 43.1626 83.7014C43.8397 83.4816 44.4288 83.1562 44.8509 82.5759C45.0971 82.2417 45.4136 82.1098 45.8093 82.1186C46.4072 82.1274 47.014 82.1186 47.6119 82.1186C47.6734 82.1186 47.7262 82.1186 47.7878 82.1274C48.3153 82.1714 48.4297 82.3648 48.2186 82.8748C48.1483 83.0331 48.0691 83.1826 47.9812 83.3321C46.2578 86.2514 42.9516 87.5791 39.6893 86.6383C37.1394 85.8997 35.5214 84.2026 34.8092 81.6614C34.2464 79.6302 34.3783 77.6342 35.2928 75.7085C36.6821 72.7892 39.874 71.1977 42.9692 71.7077C45.8709 72.1825 48.3505 74.6094 48.8781 77.4671C49.0012 78.1178 49.1243 78.7597 49.0803 79.428C49.0715 79.595 49.054 79.7709 49.0276 79.938C48.9836 80.1842 48.8253 80.3512 48.5615 80.3776C48.3065 80.404 48.0428 80.404 47.7878 80.4128C46.2578 80.3952 44.7366 80.3952 43.2154 80.3952ZM41.8524 78.1266C42.9428 78.1266 44.0331 78.1354 45.1235 78.1178C45.6423 78.109 45.7654 77.9507 45.5983 77.4847C45.0267 75.9019 43.9716 74.8644 42.2481 74.6621C40.0762 74.4159 38.6254 75.6821 38.045 77.2297C37.9923 77.3616 37.9571 77.5023 37.9395 77.643C37.9044 77.8628 38.0275 78.0475 38.2473 78.0826C38.4759 78.1178 38.7045 78.1266 38.9331 78.1266C39.9004 78.1266 40.8764 78.1266 41.8524 78.1266Z" fill="#081812"/>
<path d="M76.9805 80.3952C75.433 80.3952 73.8854 80.404 72.3378 80.3952C71.4673 80.3864 71.3969 80.6238 71.7223 81.38C72.4081 82.9891 73.648 83.8684 75.3802 83.9212C76.4969 83.9564 77.5521 83.6222 78.3171 82.7341C78.7304 82.2593 79.214 82.0659 79.8295 82.101C80.4274 82.1362 81.0341 82.101 81.6321 82.1274C81.9662 82.145 82.0981 82.3472 81.9574 82.6638C81.5529 83.5958 80.999 84.4312 80.2252 85.0907C78.8271 86.2865 77.2092 86.9548 75.345 86.9196C72.03 86.8493 69.357 84.8445 68.504 81.7669C67.9589 79.806 67.994 77.854 68.8118 75.9635C70.1044 72.965 72.8918 71.4526 75.7935 71.6109C79.0117 71.7868 81.3243 73.818 82.2212 76.4031C82.5993 77.4847 82.7224 78.575 82.6521 79.7005C82.6169 80.2193 82.485 80.3512 81.9662 80.3776C81.7376 80.3952 81.509 80.3864 81.2803 80.3864C79.8471 80.3952 78.4138 80.3952 76.9805 80.3952ZM75.4242 78.1266C76.365 78.1266 77.3147 78.1266 78.2555 78.1266C78.4578 78.1266 78.66 78.1266 78.8535 78.109C79.2404 78.0738 79.3635 77.9067 79.2491 77.5374C78.616 75.5502 77.2443 74.6093 75.3714 74.6181C73.5864 74.6181 72.3466 75.5766 71.6607 77.3088C71.4057 77.9507 71.5288 78.1178 72.2499 78.1266C73.3138 78.1354 74.369 78.1266 75.4242 78.1266Z" fill="#081812"/>
<path d="M95.5603 86.8229C95.2173 86.8229 94.8656 86.7877 94.5315 86.8317C93.872 86.902 93.4675 86.6118 93.1246 86.0755C92.4739 85.0643 91.7705 84.0882 91.0846 83.0946C90.9527 82.91 90.8296 82.7165 90.6713 82.5406C90.5658 82.4175 90.4075 82.4087 90.2932 82.5319C90.1613 82.6813 90.047 82.8484 89.9327 83.0067C89.2644 83.9739 88.5962 84.9411 87.9191 85.9084C87.7696 86.1194 87.6201 86.3217 87.4531 86.5239C87.3212 86.691 87.1541 86.7965 86.9343 86.7965C85.9055 86.7965 84.8679 86.7965 83.8391 86.7877C83.5929 86.7877 83.5138 86.5855 83.6369 86.3568C83.6984 86.2337 83.7776 86.1106 83.8567 85.9875C84.2436 85.416 84.6305 84.8532 85.0174 84.2817C86.011 82.8396 87.0046 81.3975 87.9982 79.9643C88.0774 79.85 88.1565 79.7269 88.2356 79.6038C88.35 79.4191 88.3675 79.2257 88.2444 79.041C88.1213 78.8476 87.9982 78.6541 87.8663 78.4695C86.565 76.5789 85.2548 74.6972 83.9534 72.8067C83.7776 72.5517 83.4434 72.2967 83.5929 71.989C83.7688 71.6285 84.1996 71.7691 84.5338 71.7604C85.2196 71.7428 85.9143 71.7691 86.6001 71.7516C87.0486 71.7428 87.3563 71.9186 87.6025 72.2879C88.3587 73.4047 89.1413 74.5038 89.9151 75.6029C90.0118 75.7436 90.1086 75.8931 90.2141 76.025C90.4163 76.2976 90.5482 76.3064 90.7417 76.0338C91.4011 75.0929 92.043 74.1433 92.7025 73.2024C92.9487 72.8507 93.2037 72.499 93.4499 72.1472C93.6258 71.8922 93.8632 71.7516 94.171 71.7516C95.0854 71.7516 96.0087 71.7516 96.9232 71.7516C97.0111 71.7516 97.0903 71.7779 97.1782 71.7955C97.3189 71.8307 97.4156 72.0066 97.3541 72.1297C97.2485 72.3319 97.143 72.5341 97.0111 72.7276C96.0439 74.1433 95.0591 75.559 94.083 76.9746C93.661 77.5902 93.2565 78.2145 92.8168 78.8212C92.5618 79.1729 92.553 79.4631 92.808 79.8236C93.4323 80.6853 94.0215 81.5646 94.6282 82.4351C95.4284 83.587 96.2285 84.7477 97.0199 85.9084C97.1342 86.0755 97.2397 86.2425 97.3277 86.4272C97.4156 86.603 97.3189 86.7789 97.1078 86.7877C96.5891 86.7965 96.0791 86.7877 95.5603 86.7877V86.8229Z" fill="#081812"/>
</svg>
