<svg width="37" height="27" viewBox="0 0 37 27" fill="none" xmlns="http://www.w3.org/2000/svg">
    <path d="M31.7922 2.25C32.3945 2.25 32.9721 2.48705 33.398 2.90901C33.8239 3.33097 34.0631 3.90326 34.0631 4.5V22.5C34.0631 23.0967 33.8239 23.669 33.398 24.091C32.9721 24.5129 32.3945 24.75 31.7922 24.75H4.54175C3.93947 24.75 3.36187 24.5129 2.936 24.091C2.51013 23.669 2.27087 23.0967 2.27087 22.5V4.5C2.27087 3.90326 2.51013 3.33097 2.936 2.90901C3.36187 2.48705 3.93947 2.25 4.54175 2.25H31.7922ZM4.54175 0C3.3372 0 2.18199 0.474106 1.33025 1.31802C0.478504 2.16193 0 3.30653 0 4.5L0 22.5C0 23.6935 0.478504 24.8381 1.33025 25.682C2.18199 26.5259 3.3372 27 4.54175 27H31.7922C32.9968 27 34.152 26.5259 35.0037 25.682C35.8555 24.8381 36.334 23.6935 36.334 22.5V4.5C36.334 3.30653 35.8555 2.16193 35.0037 1.31802C34.152 0.474106 32.9968 0 31.7922 0H4.54175Z"
          fill="#58D1B7"/>
    <path d="M4.54297 7.875C4.54297 7.57663 4.6626 7.29048 4.87553 7.07951C5.08847 6.86853 5.37727 6.75 5.67841 6.75H10.2202C10.5213 6.75 10.8101 6.86853 11.023 7.07951C11.236 7.29048 11.3556 7.57663 11.3556 7.875V10.125C11.3556 10.4234 11.236 10.7095 11.023 10.9205C10.8101 11.1315 10.5213 11.25 10.2202 11.25H5.67841C5.37727 11.25 5.08847 11.1315 4.87553 10.9205C4.6626 10.7095 4.54297 10.4234 4.54297 10.125V7.875ZM4.54297 14.625C4.54297 14.3266 4.6626 14.0405 4.87553 13.8295C5.08847 13.6185 5.37727 13.5 5.67841 13.5H17.0328C17.3339 13.5 17.6227 13.6185 17.8357 13.8295C18.0486 14.0405 18.1682 14.3266 18.1682 14.625C18.1682 14.9234 18.0486 15.2095 17.8357 15.4205C17.6227 15.6315 17.3339 15.75 17.0328 15.75H5.67841C5.37727 15.75 5.08847 15.6315 4.87553 15.4205C4.6626 15.2095 4.54297 14.9234 4.54297 14.625ZM4.54297 19.125C4.54297 18.8266 4.6626 18.5405 4.87553 18.3295C5.08847 18.1185 5.37727 18 5.67841 18H7.94928C8.25042 18 8.53922 18.1185 8.75215 18.3295C8.96509 18.5405 9.08472 18.8266 9.08472 19.125C9.08472 19.4234 8.96509 19.7095 8.75215 19.9205C8.53922 20.1315 8.25042 20.25 7.94928 20.25H5.67841C5.37727 20.25 5.08847 20.1315 4.87553 19.9205C4.6626 19.7095 4.54297 19.4234 4.54297 19.125ZM11.3556 19.125C11.3556 18.8266 11.4752 18.5405 11.6882 18.3295C11.9011 18.1185 12.1899 18 12.491 18H14.7619C15.063 18 15.3518 18.1185 15.5648 18.3295C15.7777 18.5405 15.8973 18.8266 15.8973 19.125C15.8973 19.4234 15.7777 19.7095 15.5648 19.9205C15.3518 20.1315 15.063 20.25 14.7619 20.25H12.491C12.1899 20.25 11.9011 20.1315 11.6882 19.9205C11.4752 19.7095 11.3556 19.4234 11.3556 19.125ZM18.1682 19.125C18.1682 18.8266 18.2878 18.5405 18.5008 18.3295C18.7137 18.1185 19.0025 18 19.3036 18H21.5745C21.8757 18 22.1645 18.1185 22.3774 18.3295C22.5903 18.5405 22.71 18.8266 22.71 19.125C22.71 19.4234 22.5903 19.7095 22.3774 19.9205C22.1645 20.1315 21.8757 20.25 21.5745 20.25H19.3036C19.0025 20.25 18.7137 20.1315 18.5008 19.9205C18.2878 19.7095 18.1682 19.4234 18.1682 19.125ZM24.9808 19.125C24.9808 18.8266 25.1005 18.5405 25.3134 18.3295C25.5263 18.1185 25.8151 18 26.1163 18H28.3871C28.6883 18 28.9771 18.1185 29.19 18.3295C29.403 18.5405 29.5226 18.8266 29.5226 19.125C29.5226 19.4234 29.403 19.7095 29.19 19.9205C28.9771 20.1315 28.6883 20.25 28.3871 20.25H26.1163C25.8151 20.25 25.5263 20.1315 25.3134 19.9205C25.1005 19.7095 24.9808 19.4234 24.9808 19.125Z"
          fill="#58D1B7"/>
</svg>
