<svg width="16" height="16" viewBox="0 0 16 16" fill="none" xmlns="http://www.w3.org/2000/svg">
    <path d="M1.71429 0C1.25963 0 0.823594 0.180612 0.502103 0.502103C0.180612 0.823594 0 1.25963 0 1.71429V14.2857C0 14.7404 0.180612 15.1764 0.502103 15.4979C0.823594 15.8194 1.25963 16 1.71429 16H14.2857C14.7404 16 15.1764 15.8194 15.4979 15.4979C15.8194 15.1764 16 14.7404 16 14.2857V1.71429C16 1.25963 15.8194 0.823594 15.4979 0.502103C15.1764 0.180612 14.7404 0 14.2857 0H1.71429ZM7.26171 3.88114C7.31493 3.93422 7.35715 3.99728 7.38596 4.0667C7.41476 4.13613 7.42959 4.21055 7.42959 4.28571C7.42959 4.36088 7.41476 4.4353 7.38596 4.50472C7.35715 4.57415 7.31493 4.63721 7.26171 4.69029L5.26171 6.69029C5.15761 6.79427 5.0174 6.85408 4.8703 6.85728C4.72319 6.86047 4.58052 6.8068 4.472 6.70743L3.61486 5.92457C3.55661 5.87479 3.50897 5.8138 3.47478 5.74523C3.44058 5.67666 3.42052 5.60192 3.41579 5.52544C3.41107 5.44897 3.42177 5.37232 3.44726 5.30007C3.47276 5.22781 3.51252 5.16142 3.56419 5.10484C3.61586 5.04826 3.67838 5.00266 3.74804 4.97073C3.81769 4.93881 3.89305 4.92121 3.96964 4.919C4.04623 4.91679 4.12249 4.93001 4.19387 4.95786C4.26525 4.98572 4.33029 5.02764 4.38514 5.08114L4.83886 5.49486L6.45257 3.88114C6.50565 3.82793 6.56871 3.78571 6.63813 3.7569C6.70756 3.72809 6.78198 3.71326 6.85714 3.71326C6.93231 3.71326 7.00673 3.72809 7.07615 3.7569C7.14558 3.78571 7.20863 3.82793 7.26171 3.88114ZM7.26171 9.59543C7.31493 9.64851 7.35715 9.71157 7.38596 9.78099C7.41476 9.85041 7.42959 9.92484 7.42959 10C7.42959 10.0752 7.41476 10.1496 7.38596 10.219C7.35715 10.2884 7.31493 10.3515 7.26171 10.4046L5.26171 12.4046C5.15761 12.5086 5.0174 12.5684 4.8703 12.5716C4.72319 12.5748 4.58052 12.5211 4.472 12.4217L3.61486 11.6389C3.5087 11.5353 3.44696 11.3945 3.44268 11.2463C3.4384 11.0981 3.49192 10.954 3.59192 10.8445C3.69193 10.735 3.8306 10.6686 3.97862 10.6595C4.12663 10.6503 4.27241 10.6991 4.38514 10.7954L4.83886 11.2103L6.45257 9.59543C6.50565 9.54221 6.56871 9.49999 6.63813 9.47119C6.70756 9.44238 6.78198 9.42755 6.85714 9.42755C6.93231 9.42755 7.00673 9.44238 7.07615 9.47119C7.14558 9.49999 7.20863 9.54221 7.26171 9.59543ZM9.14286 10.2857H12C12.1516 10.2857 12.2969 10.3459 12.4041 10.4531C12.5112 10.5602 12.5714 10.7056 12.5714 10.8571C12.5714 11.0087 12.5112 11.154 12.4041 11.2612C12.2969 11.3684 12.1516 11.4286 12 11.4286H9.14286C8.99131 11.4286 8.84596 11.3684 8.7388 11.2612C8.63163 11.154 8.57143 11.0087 8.57143 10.8571C8.57143 10.7056 8.63163 10.5602 8.7388 10.4531C8.84596 10.3459 8.99131 10.2857 9.14286 10.2857ZM8.57143 5.14286C8.57143 4.9913 8.63163 4.84596 8.7388 4.7388C8.84596 4.63163 8.99131 4.57143 9.14286 4.57143H12C12.1516 4.57143 12.2969 4.63163 12.4041 4.7388C12.5112 4.84596 12.5714 4.9913 12.5714 5.14286C12.5714 5.29441 12.5112 5.43975 12.4041 5.54692C12.2969 5.65408 12.1516 5.71429 12 5.71429H9.14286C8.99131 5.71429 8.84596 5.65408 8.7388 5.54692C8.63163 5.43975 8.57143 5.29441 8.57143 5.14286Z"
          fill="#FFA305"/>
</svg>
