<svg width="41" height="37" viewBox="0 0 41 37" fill="none" xmlns="http://www.w3.org/2000/svg">
    <path d="M0.382812 29.7845C0.382812 33.3764 3.28864 36.2823 6.88057 36.2823H13.7416V29.0177H0.382812V29.7845Z"
          fill="#536E86"/>
    <path d="M13.7416 19.2906H0.382812V26.7166H13.7416V19.2906Z" fill="#536E86"/>
    <path d="M0.382812 6.49776V7.26457H13.7416V0H6.88057C3.28864 0 0.382812 2.90583 0.382812 6.49776Z" fill="#536E86"/>
    <path d="M34.2005 0.00012207H27.5817H25.2812H16.0391V7.2647V9.56514V16.9912V19.2916V26.7176V29.0181V36.2826H25.2812V29.0181V26.7176V19.2916V16.9912V9.56514V7.2647H27.5817H40.6983V6.49788C40.6983 2.90595 37.7924 0.00012207 34.2005 0.00012207Z"
          fill="#536E86"/>
    <path d="M13.7416 9.56549H0.382812V16.9915H13.7416V9.56549Z" fill="#536E86"/>
    <path d="M40.6947 9.56543H27.5781V16.9914H40.6947V9.56543Z" fill="#536E86"/>
    <path d="M40.6947 19.291H27.5781V26.717H40.6947V19.291Z" fill="#536E86"/>
    <path d="M27.5781 36.2826H34.197C37.7889 36.2826 40.6947 33.3768 40.6947 29.7849V29.0181H27.5781V36.2826Z"
          fill="#536E86"/>
</svg>
