<svg width="18" height="18" viewBox="0 0 18 18" fill="none" xmlns="http://www.w3.org/2000/svg">
<path d="M5.22971 10.2787C5.73556 10.2787 6.22451 10.246 6.68719 10.1852V5.11378C6.22455 5.053 5.73556 5.02032 5.22971 5.02032C2.34143 5.02032 0 6.08226 0 7.39229V7.9067C0 9.21667 2.34143 10.2787 5.22971 10.2787Z" fill="#FFA305"/>
<path d="M5.22971 12.9268C5.73556 12.9268 6.22451 12.8941 6.68719 12.8334V11.3469C6.22442 11.4076 5.73569 11.4408 5.22971 11.4408C2.70855 11.4408 0.604271 10.6316 0.10999 9.55463C0.0380079 9.7115 0 9.87393 0 10.0404V10.5548C0 11.8649 2.34143 12.9268 5.22971 12.9268Z" fill="#FFA305"/>
<path d="M6.68719 14.1106V13.9951C6.22442 14.0558 5.73569 14.089 5.22971 14.089C2.70855 14.089 0.604271 13.2798 0.10999 12.2028C0.0380079 12.3596 0 12.5221 0 12.6886V13.203C0 14.5131 2.34143 15.575 5.22971 15.575C5.80732 15.575 6.36287 15.5324 6.88238 15.454C6.75361 15.1906 6.68719 14.9128 6.68719 14.625V14.1106Z" fill="#FFA305"/>
<path d="M12.7707 1.00305C9.88245 1.00305 7.54102 2.06499 7.54102 3.37501V3.88942C7.54102 5.19944 9.88245 6.26137 12.7707 6.26137C15.659 6.26137 18.0005 5.19944 18.0005 3.88942V3.37501C18.0005 2.06499 15.659 1.00305 12.7707 1.00305Z" fill="#FFA305"/>
<path d="M12.7707 7.4235C10.2496 7.4235 8.14529 6.61435 7.65101 5.53735C7.57902 5.69418 7.54102 5.85661 7.54102 6.02317V6.53757C7.54102 7.84759 9.88245 8.90953 12.7707 8.90953C15.659 8.90953 18.0005 7.84759 18.0005 6.53757V6.02317C18.0005 5.85661 17.9624 5.69418 17.8905 5.53735C17.3962 6.61435 15.2919 7.4235 12.7707 7.4235Z" fill="#FFA305"/>
<path d="M12.7707 10.0717C10.2496 10.0717 8.14529 9.2625 7.65101 8.18555C7.57902 8.34237 7.54102 8.5048 7.54102 8.67136V9.18577C7.54102 10.4958 9.88245 11.5578 12.7707 11.5578C15.659 11.5578 18.0005 10.4958 18.0005 9.18577V8.67136C18.0005 8.5048 17.9624 8.34237 17.8905 8.18555C17.3962 9.26254 15.2919 10.0717 12.7707 10.0717Z" fill="#FFA305"/>
<path d="M12.7707 12.8628C10.2496 12.8628 8.14529 12.0536 7.65101 10.9767C7.57902 11.1336 7.54102 11.2959 7.54102 11.4624V11.9769C7.54102 13.2869 9.88245 14.3488 12.7707 14.3488C15.659 14.3488 18.0005 13.2869 18.0005 11.9769V11.4624C18.0005 11.2959 17.9624 11.1335 17.8905 10.9767C17.3962 12.0536 15.2919 12.8628 12.7707 12.8628Z" fill="#FFA305"/>
<path d="M12.7707 15.511C10.2496 15.511 8.14529 14.7018 7.65101 13.6249C7.57902 13.7817 7.54102 13.9442 7.54102 14.1106V14.625C7.54102 15.9351 9.88245 16.997 12.7707 16.997C15.659 16.997 18.0005 15.9351 18.0005 14.625V14.1106C18.0005 13.9441 17.9624 13.7816 17.8905 13.6248C17.3962 14.7018 15.2919 15.511 12.7707 15.511Z" fill="#FFA305"/>
</svg>
