<svg width="21" height="24" viewBox="0 0 21 24" fill="none" xmlns="http://www.w3.org/2000/svg">
    <path d="M2.33594 4.17V17C2.33574 18.2694 2.8184 19.4914 3.68602 20.4181C4.55363 21.3448 5.74124 21.9067 7.00794 21.99L7.33594 22H16.1639C15.9572 22.5848 15.5742 23.0912 15.0677 23.4494C14.5613 23.8075 13.9562 23.9999 13.3359 24H6.33594C4.74464 24 3.21852 23.3679 2.0933 22.2426C0.968079 21.1174 0.335938 19.5913 0.335938 18V7C0.335613 6.37935 0.527793 5.77387 0.885994 5.26702C1.24419 4.76016 1.75078 4.37688 2.33594 4.17ZM17.3359 0C18.1316 0 18.8946 0.316071 19.4573 0.87868C20.0199 1.44129 20.3359 2.20435 20.3359 3V17C20.3359 17.7956 20.0199 18.5587 19.4573 19.1213C18.8946 19.6839 18.1316 20 17.3359 20H7.33594C6.54029 20 5.77723 19.6839 5.21462 19.1213C4.65201 18.5587 4.33594 17.7956 4.33594 17V3C4.33594 2.20435 4.65201 1.44129 5.21462 0.87868C5.77723 0.316071 6.54029 0 7.33594 0H17.3359ZM17.3359 2H7.33594C7.07072 2 6.81637 2.10536 6.62883 2.29289C6.4413 2.48043 6.33594 2.73478 6.33594 3V17C6.33594 17.2652 6.4413 17.5196 6.62883 17.7071C6.81637 17.8946 7.07072 18 7.33594 18H17.3359C17.6012 18 17.8555 17.8946 18.043 17.7071C18.2306 17.5196 18.3359 17.2652 18.3359 17V3C18.3359 2.73478 18.2306 2.48043 18.043 2.29289C17.8555 2.10536 17.6012 2 17.3359 2Z" fill="#FFA305"/>
</svg>
