<svg width="48" height="44" viewBox="0 0 48 44" fill="none" xmlns="http://www.w3.org/2000/svg">
<path d="M46.7235 20.4541L46.7301 20.4595L46.7369 20.4647C46.9679 20.6408 47.1571 20.8687 47.2896 21.1316C47.4214 21.393 47.4935 21.6819 47.5 21.9765V31.7363C47.5 32.2539 47.2978 32.7486 46.9406 33.112C46.5836 33.4752 46.1013 33.6776 45.6003 33.6776H45.1203H44.4111L44.6494 34.3456C45.0175 35.3772 45.1358 36.4842 44.9942 37.5726C44.8526 38.661 44.4554 39.698 43.8367 40.596C43.2181 41.4939 42.3965 42.2262 41.442 42.7313C40.4876 43.2365 39.4281 43.5 38.3531 43.5C37.2782 43.5 36.2187 43.2365 35.2642 42.7313C34.3098 42.2262 33.4881 41.4939 32.8695 40.596C32.2508 39.698 31.8536 38.661 31.712 37.5726C31.5704 36.4842 31.6888 35.3772 32.0568 34.3456L32.2951 33.6776H31.5859H16.3236H15.6166L15.8522 34.3442C16.2208 35.387 16.3345 36.5056 16.1834 37.6034C16.0322 38.7013 15.6208 39.7445 14.9854 40.6434C14.3499 41.5422 13.5097 42.2693 12.5377 42.7628C11.5658 43.2563 10.4909 43.5016 9.40579 43.4779C8.32066 43.4543 7.25705 43.1624 6.30665 42.6269C5.35621 42.0914 4.54722 41.3282 3.95011 40.4024C3.35298 39.4765 2.98588 38.4162 2.88108 37.3127C2.77629 36.2093 2.93702 35.0967 3.34913 34.071L3.52905 33.6232L3.08794 33.4276C2.30612 33.0807 1.64211 32.5043 1.18163 31.7704L0.758092 32.0361L1.18163 31.7704C0.721081 31.0363 0.485349 30.1786 0.505384 29.3065L0.505516 29.3065V29.295V4.88251V4.87045L0.504935 4.85841C0.452042 3.76208 0.82604 2.6901 1.54353 1.87456C2.25737 1.06318 3.25354 0.570863 4.31717 0.5H31.6445C32.7167 0.55929 33.7247 1.04698 34.4481 1.86023C35.1747 2.67697 35.5545 3.75521 35.5019 4.8587L35.5014 4.8706V4.88251V11.0345V11.2714L35.6847 11.4214L46.7235 20.4541ZM43.7006 23.1431V22.9053L43.5162 22.7553L36.317 16.8963L35.5014 16.2325V17.2841V29.295V29.795H36.0014H43.2006H43.7006V29.295V23.1431ZM12.0176 38.2496C12.3352 37.7661 12.5041 37.1986 12.5041 36.6188C12.5041 35.8415 12.2007 35.0943 11.6578 34.5421C11.1147 33.9896 10.3763 33.6776 9.60441 33.6776C9.02897 33.6776 8.46718 33.8512 7.99012 34.1755C7.51316 34.4997 7.1427 34.9596 6.92427 35.496C6.70587 36.0324 6.64886 36.6222 6.76009 37.191C6.87133 37.7599 7.14611 38.2837 7.55098 38.6955C7.95594 39.1075 8.47294 39.3891 9.03708 39.5032C9.60128 39.6174 10.186 39.5587 10.7169 39.335C11.2477 39.1113 11.7 38.7331 12.0176 38.2496ZM40.8143 38.2496C41.1319 37.7661 41.3008 37.1986 41.3008 36.6188C41.3008 35.8415 40.9974 35.0943 40.4545 34.5421C39.9114 33.9896 39.173 33.6776 38.4011 33.6776C37.8257 33.6776 37.2639 33.8512 36.7868 34.1755C36.3098 34.4997 35.9394 34.9596 35.721 35.496C35.5026 36.0324 35.4455 36.6222 35.5568 37.191C35.668 37.7599 35.9428 38.2837 36.3477 38.6955C36.7526 39.1075 37.2696 39.3891 37.8338 39.5032C38.398 39.6174 38.9827 39.5587 39.5136 39.335C40.0444 39.1113 40.4967 38.7331 40.8143 38.2496Z" fill="#F9F6F1" stroke="#58D1B7"/>
</svg>
