<svg width="19" height="19" viewBox="0 0 19 19" fill="none" xmlns="http://www.w3.org/2000/svg">
<g clip-path="url(#clip0)">
<path d="M14.9699 2.58717L5.73173 6.93023V9.71914L4.12015 9.00254V6.21363L13.3583 1.8706L10.2554 0.490959C9.83992 0.306236 9.16008 0.306236 8.7446 0.490959L1.1039 3.8883C0.495183 4.15896 -0.00154866 4.92542 3.6283e-06 5.5916L0.0188174 13.5559C0.0204007 14.2292 0.528216 14.9965 1.14727 15.2611L8.76795 18.5188C9.16983 18.6906 9.82751 18.6906 10.2294 18.5189L17.8527 15.2611C18.4717 14.9966 18.9796 14.2293 18.9812 13.5561L19 5.5916C19.0016 4.92542 18.5049 4.15896 17.8961 3.8883L14.9699 2.58717ZM17.2738 8.96218L16.8266 9.16966L16.8176 12.3162C16.8172 12.4537 16.6957 12.6174 16.5466 12.6817L15.8772 12.9708C15.7305 13.0341 15.6117 12.9754 15.6116 12.8396L15.6094 9.73441L15.1763 9.93534C14.9725 10.0298 14.845 9.88166 14.9462 9.66832L15.9815 7.48406C16.086 7.26357 16.348 7.13638 16.4529 7.25596L17.5153 8.46712C17.6214 8.58802 17.4867 8.86342 17.2738 8.96218ZM12.9025 14.0154C12.9036 14.1472 12.7923 14.3023 12.6541 14.362L12.0333 14.63C11.8972 14.6887 11.7858 14.6309 11.7843 14.5008L11.7479 11.5258L11.3462 11.7122C11.1573 11.7998 11.0368 11.656 11.1287 11.4531L12.0697 9.37673C12.1646 9.16727 12.4073 9.04948 12.5063 9.16547L13.5091 10.3401C13.6093 10.4574 13.487 10.7189 13.2899 10.8104L12.8758 11.0025L12.9025 14.0154ZM18.0128 13.1516C18.0123 13.2207 17.9502 13.3027 17.8741 13.3347L10.7834 16.3135C10.7172 16.3413 10.6628 16.3122 10.6618 16.2484L10.6564 15.9019C10.6554 15.838 10.7082 15.7634 10.7745 15.7351L17.8779 12.7092C17.9541 12.6767 18.0156 12.7065 18.0152 12.7758L18.0128 13.1516Z" fill="#FFA305"/>
</g>
<defs>
<clipPath id="clip0">
<rect width="19" height="19" fill="white"/>
</clipPath>
</defs>
</svg>
