<svg width="9" height="6" viewBox="0 0 9 6" fill="none" xmlns="http://www.w3.org/2000/svg">
    <path fill-rule="evenodd" clip-rule="evenodd"
          d="M8.06056 0.818377C8.17309 0.930899 8.2363 1.08351 8.2363 1.24264C8.2363 1.40177 8.17309 1.55438 8.06056 1.6669L4.66645 5.06102C4.55393 5.17354 4.40132 5.23675 4.24219 5.23675C4.08306 5.23675 3.93045 5.17354 3.81792 5.06102L0.423811 1.6669C0.311289 1.55438 0.248075 1.40177 0.248075 1.24264C0.248075 1.08351 0.311289 0.930899 0.423811 0.818377C0.536333 0.705855 0.688945 0.642641 0.848075 0.642641C1.0072 0.642641 1.15982 0.705855 1.27234 0.818377L4.24219 3.78823L7.21204 0.818377C7.32456 0.705855 7.47717 0.642641 7.6363 0.642641C7.79543 0.642641 7.94804 0.705855 8.06056 0.818377Z"
          fill="#8A8A8A"/>
</svg>
