<svg width="9" height="9" viewBox="0 0 9 9" fill="none" xmlns="http://www.w3.org/2000/svg">
    <path fill-rule="evenodd" clip-rule="evenodd"
          d="M8.06056 3.81838C8.17309 3.9309 8.2363 4.08351 8.2363 4.24264C8.2363 4.40177 8.17309 4.55438 8.06056 4.6669L4.66645 8.06102C4.55393 8.17354 4.40132 8.23675 4.24219 8.23675C4.08306 8.23675 3.93045 8.17354 3.81792 8.06102L0.423811 4.6669C0.311289 4.55438 0.248075 4.40177 0.248075 4.24264C0.248075 4.08351 0.311289 3.9309 0.423811 3.81838C0.536333 3.70585 0.688945 3.64264 0.848075 3.64264C1.0072 3.64264 1.15982 3.70585 1.27234 3.81838L4.24219 6.78823L7.21204 3.81838C7.32456 3.70585 7.47717 3.64264 7.6363 3.64264C7.79543 3.64264 7.94804 3.70585 8.06056 3.81838Z"
          fill="#58D1B7"/>
</svg>
