<svg width="10" height="10" viewBox="0 0 10 10" fill="none" xmlns="http://www.w3.org/2000/svg">
    <path fill-rule="evenodd" clip-rule="evenodd"
          d="M8.95675 4.24264C9.08178 4.36766 9.15201 4.53723 9.15201 4.71405C9.15201 4.89086 9.08178 5.06042 8.95675 5.18545L5.18552 8.95668C5.06049 9.08171 4.89092 9.15195 4.71411 9.15195C4.5373 9.15195 4.36773 9.08171 4.24271 8.95668L0.471471 5.18545C0.346447 5.06042 0.276209 4.89086 0.276209 4.71405C0.276209 4.53723 0.346447 4.36766 0.471471 4.24264C0.596495 4.11762 0.766065 4.04738 0.942875 4.04738C1.11969 4.04738 1.28926 4.11762 1.41428 4.24264L4.71411 7.54247L8.01394 4.24264C8.13897 4.11762 8.30854 4.04738 8.48535 4.04738C8.66216 4.04738 8.83173 4.11762 8.95675 4.24264Z"
          fill="white"/>
</svg>
