<svg width="24" height="17" viewBox="0 0 24 17" fill="none" xmlns="http://www.w3.org/2000/svg">
    <path d="M3.74471 9.40366C3.66415 9.61753 3.50101 9.79244 3.28996 9.8912C3.07891 9.98997 2.83658 10.0048 2.61445 9.93258C2.39232 9.86034 2.20791 9.70672 2.1004 9.50436C1.99289 9.30201 1.97075 9.06685 2.03868 8.84887C2.02069 8.90137 2.03868 8.84712 2.03868 8.84712C2.07077 8.75079 2.10802 8.65615 2.15026 8.5636C2.22224 8.39734 2.32842 8.16808 2.47419 7.89681C2.76932 7.35428 3.23362 6.63148 3.91387 5.90868C5.29416 4.44734 7.54906 3 10.9899 3C14.4325 3 16.6874 4.44734 18.0641 5.90868C18.7991 6.69257 19.3951 7.58976 19.8277 8.5636C19.8637 8.64586 19.8907 8.71236 19.9087 8.76136C19.9159 8.77537 19.9339 8.86637 19.9519 8.95388C19.9681 9.03438 19.9825 9.11139 19.9879 9.12539C19.9879 9.12539 20.1391 9.70817 19.3724 9.95494C19.1467 10.0283 18.9002 10.0116 18.6871 9.90861C18.4739 9.80561 18.3114 9.62467 18.2351 9.40541V9.40016L18.2225 9.37215C18.1321 9.14733 18.0288 8.92764 17.913 8.71411C17.5935 8.12708 17.1987 7.58192 16.7378 7.09176C15.6401 5.92794 13.8459 4.75011 10.9899 4.75011C8.13393 4.75011 6.33973 5.92794 5.24197 7.09176C4.64764 7.72542 4.16432 8.44968 3.81129 9.23565C3.7924 9.28081 3.7744 9.32632 3.7573 9.37215L3.74471 9.40366Z" fill="#8A8A8A"/>
    <path d="M7 10C7 8.93913 7.42143 7.92172 8.17157 7.17157C8.92172 6.42143 9.93913 6 11 6C12.0609 6 13.0783 6.42143 13.8284 7.17157C14.5786 7.92172 15 8.93913 15 10C15 11.0609 14.5786 12.0783 13.8284 12.8284C13.0783 13.5786 12.0609 14 11 14C9.93913 14 8.92172 13.5786 8.17157 12.8284C7.42143 12.0783 7 11.0609 7 10Z" fill="#8A8A8A"/>
    <line x1="22.7124" y1="1.38385" x2="1.38267" y2="15.2917" stroke="#8A8A8A" stroke-width="2" stroke-linecap="round"/>
</svg>
