<svg width="18" height="11" viewBox="0 0 18 11" fill="none" xmlns="http://www.w3.org/2000/svg">
    <path d="M1.74471 6.40366C1.66415 6.61753 1.50101 6.79244 1.28996 6.8912C1.07891 6.98997 0.836576 7.00481 0.61445 6.93258C0.392324 6.86034 0.207913 6.70672 0.100401 6.50436C-0.00711153 6.30201 -0.0292517 6.06685 0.0386846 5.84887C0.0206886 5.90137 0.0386846 5.84712 0.0386846 5.84712C0.0707733 5.75079 0.108016 5.65615 0.15026 5.5636C0.222244 5.39734 0.32842 5.16808 0.474188 4.89681C0.769323 4.35428 1.23362 3.63148 1.91387 2.90868C3.29416 1.44734 5.54906 0 8.9899 0C12.4325 0 14.6874 1.44734 16.0641 2.90868C16.7991 3.69257 17.3951 4.58976 17.8277 5.5636C17.8637 5.64586 17.8907 5.71236 17.9087 5.76136C17.9159 5.77537 17.9339 5.86637 17.9519 5.95388C17.9681 6.03438 17.9825 6.11139 17.9879 6.12539C17.9879 6.12539 18.1391 6.70817 17.3724 6.95494C17.1467 7.02826 16.9002 7.0116 16.6871 6.90861C16.4739 6.80561 16.3114 6.62467 16.2351 6.40541V6.40016L16.2225 6.37215C16.1321 6.14733 16.0288 5.92764 15.913 5.71411C15.5935 5.12708 15.1987 4.58192 14.7378 4.09176C13.6401 2.92794 11.8459 1.75011 8.9899 1.75011C6.13393 1.75011 4.33973 2.92794 3.24197 4.09176C2.64764 4.72542 2.16432 5.44968 1.81129 6.23565C1.7924 6.28081 1.7744 6.32632 1.7573 6.37215L1.74471 6.40366Z"
          fill="#8A8A8A"/>
    <path d="M5 7C5 5.93913 5.42143 4.92172 6.17157 4.17157C6.92172 3.42143 7.93913 3 9 3C10.0609 3 11.0783 3.42143 11.8284 4.17157C12.5786 4.92172 13 5.93913 13 7C13 8.06087 12.5786 9.07828 11.8284 9.82843C11.0783 10.5786 10.0609 11 9 11C7.93913 11 6.92172 10.5786 6.17157 9.82843C5.42143 9.07828 5 8.06087 5 7Z"
          fill="#8A8A8A"/>
</svg>
