<svg width="18" height="18" viewBox="0 0 18 18" fill="none" xmlns="http://www.w3.org/2000/svg">
    <path d="M9.00036 0C5.40581 0 2.48145 2.92437 2.48145 6.51888C2.48145 10.9798 8.31524 17.5287 8.56362 17.8053C8.79691 18.0651 9.20423 18.0647 9.43711 17.8053C9.68549 17.5287 15.5193 10.9798 15.5193 6.51888C15.5192 2.92437 12.5949 0 9.00036 0ZM9.00036 9.79871C7.19186 9.79871 5.72057 8.32739 5.72057 6.51888C5.72057 4.71037 7.19189 3.23909 9.00036 3.23909C10.8088 3.23909 12.2801 4.71041 12.2801 6.51892C12.2801 8.32743 10.8088 9.79871 9.00036 9.79871Z"
          fill="#FFA305"/>
</svg>
