<svg width="15" height="15" viewBox="0 0 15 15" fill="none" xmlns="http://www.w3.org/2000/svg">
    <path d="M9.3749 8.12488C9.02929 8.12488 8.74995 8.40492 8.74995 8.74984V11.2499C8.74995 11.5942 8.46991 11.8748 8.12488 11.8748H6.2499V2.49994C6.2499 1.96619 5.9099 1.48932 5.39869 1.31182L5.21364 1.24991H8.12488C8.46991 1.24991 8.74995 1.53052 8.74995 1.87498V3.74996C8.74995 4.09489 9.02929 4.37492 9.3749 4.37492C9.72051 4.37492 9.99986 4.09489 9.99986 3.74996V1.87498C9.99986 0.841247 9.15861 0 8.12488 0H1.40624C1.38243 0 1.36252 0.0106429 1.3394 0.0137328C1.3093 0.0112151 1.28058 0 1.25003 0C0.56064 0 0 0.560526 0 1.24991V12.4998C0 13.0335 0.34 13.5104 0.851203 13.6879L4.61249 14.9417C4.73998 14.9811 4.86678 14.9999 4.99999 14.9999C5.68937 14.9999 6.2499 14.4392 6.2499 13.7498V13.1249H8.12488C9.15861 13.1249 9.99986 12.2836 9.99986 11.2499V8.74984C9.99986 8.40492 9.72051 8.12488 9.3749 8.12488Z" fill="#FFA305"/>
    <path d="M14.8169 5.80823L12.3168 3.30829C12.1382 3.12954 11.8694 3.07575 11.6357 3.17257C11.4026 3.2695 11.25 3.49758 11.25 3.75014V5.62513H8.75007C8.40503 5.62513 8.125 5.90504 8.125 6.25008C8.125 6.59512 8.40503 6.87504 8.75007 6.87504H11.25V8.75002C11.25 9.00258 11.4026 9.23066 11.6357 9.32759C11.8694 9.42441 12.1382 9.37062 12.3168 9.19198L14.8169 6.69193C15.0612 6.4476 15.0612 6.05256 14.8169 5.80823Z" fill="#FFA305"/>
</svg>
