<svg width="14" height="14" viewBox="0 0 14 14" fill="none" xmlns="http://www.w3.org/2000/svg">
<path fill-rule="evenodd" clip-rule="evenodd" d="M6.59124 1.13678C6.76402 0.964005 6.99836 0.866938 7.24271 0.866938C7.48706 0.866937 7.7214 0.964005 7.89418 1.13678L13.1059 6.34853C13.2787 6.52131 13.3758 6.75565 13.3758 7C13.3758 7.24435 13.2787 7.47869 13.1059 7.65147L7.89418 12.8632C7.7214 13.036 7.48706 13.1331 7.24271 13.1331C6.99836 13.1331 6.76402 13.036 6.59124 12.8632C6.41846 12.6904 6.3214 12.4561 6.3214 12.2117C6.3214 11.9674 6.41846 11.7331 6.59124 11.5603L11.1515 7L6.59124 2.43972C6.41846 2.26694 6.3214 2.0326 6.3214 1.78825C6.3214 1.54391 6.41846 1.30957 6.59124 1.13678Z" fill="#FFA305"/>
</svg>
