<svg width="18" height="21" viewBox="0 0 18 21" fill="none" xmlns="http://www.w3.org/2000/svg">
<path d="M16.1265 14.2924L15.3227 4.1636C15.2728 3.511 14.7207 3 14.0664 3H12.4786V5.35255C12.4786 5.64389 12.2427 5.87972 11.9514 5.87972C11.6604 5.87972 11.4242 5.64389 11.4242 5.35255V3H6.57438V5.35255C6.57438 5.64389 6.3382 5.87972 6.04721 5.87972C5.75587 5.87972 5.52005 5.64389 5.52005 5.35255V3H3.93225C3.27789 3 2.72576 3.511 2.67587 4.16219L1.87178 14.2938C1.80958 15.1053 2.09108 15.9129 2.64388 16.5097C3.19671 17.1064 3.98041 17.449 4.794 17.449H13.2046C14.0182 17.449 14.8019 17.1064 15.3548 16.5096C15.9076 15.9129 16.1891 15.1053 16.1265 14.2924ZM11.3743 9.13434L8.64786 11.8608C8.54489 11.9638 8.40992 12.0154 8.27499 12.0154C8.14003 12.0154 8.0051 11.9638 7.90213 11.8608L6.6243 10.583C6.41836 10.377 6.41836 10.0435 6.6243 9.83757C6.83025 9.63163 7.16413 9.63163 7.36972 9.83757L8.27503 10.7425L10.629 8.38861C10.8345 8.18301 11.1684 8.18301 11.3744 8.38861C11.5803 8.59455 11.5803 8.9284 11.3743 9.13434Z" fill="#FFA305"/>
<path d="M8.99877 0C7.08026 0 5.51953 1.56108 5.51953 3.47959V3.55092H6.57387V3.47959C6.57387 2.14235 7.66157 1.0543 8.9988 1.0543C10.336 1.0543 11.4237 2.14235 11.4237 3.47959V3.55092H12.478V3.47959C12.478 1.56108 10.9173 0 8.99877 0Z" fill="#FFA305"/>
</svg>
