<svg width="35" height="41" viewBox="0 0 35 41" fill="none" xmlns="http://www.w3.org/2000/svg">
<path d="M21.5475 0.630145L21.4816 0.611793C20.5548 0.353507 19.7356 0.565998 19.0665 1.01561C18.3863 1.47273 17.87 2.17202 17.6002 2.84429C17.6001 2.84444 17.6001 2.84459 17.6 2.84475L17.136 2.65859C16.4632 4.34053 15.8636 5.53465 15.1616 6.93265C15.1375 6.98071 15.1132 7.029 15.0888 7.07757L21.5475 0.630145ZM21.5475 0.630145H21.5492M21.5475 0.630145L21.6158 0.130145H21.6187M25.1678 12.2968C25.5477 10.6702 25.8724 8.80863 25.8405 7.26024C25.8144 5.81625 25.6666 4.30266 25.075 3.02104C24.44 1.64083 23.3295 0.605678 21.6187 0.130145M25.1678 12.2968L24.6813 12.1817C24.6812 12.1819 24.6812 12.1822 24.6811 12.1824M25.1678 12.2968L24.6809 12.1831C24.681 12.1829 24.681 12.1827 24.6811 12.1824M25.1678 12.2968C25.0326 12.8684 24.8891 13.4236 24.7449 13.9425H24.6024V14.4425L25.0824 14.5827C25.0959 14.5363 25.1095 14.4896 25.123 14.4425L21.2495 39.7458M24.6811 12.1824C25.0583 10.5669 25.3712 8.75478 25.3406 7.27054L25.3406 7.26928C25.3148 5.841 25.1673 4.41413 24.6211 3.23057L24.6208 3.23002C24.0537 1.99745 23.0779 1.07286 21.5492 0.630145M24.6811 12.1824C24.5034 12.9335 24.3113 13.6556 24.1225 14.3024L23.9355 14.9425H24.6024H28.6155H28.6157C29.4396 14.9421 30.2522 15.1337 30.9891 15.5022C31.726 15.8707 32.3668 16.4059 32.8606 17.0654C33.3544 17.7249 33.6877 18.4904 33.8339 19.3012C33.9801 20.1119 33.9353 20.9457 33.703 21.7361L33.7029 21.7362L29.7479 35.2078L29.7479 35.2078C29.4952 36.0685 29.0736 36.8702 28.5075 37.566C27.9415 38.2618 27.2424 38.8378 26.4511 39.2604C25.6599 39.6829 24.7923 39.9434 23.8992 40.0268C23.0061 40.1101 22.1053 40.0146 21.2495 39.7458M21.5492 0.630145H21.6158H21.6187V0.130145M21.5492 0.630145C21.5278 0.623963 21.5064 0.617874 21.4848 0.61188L21.6158 0.140575L21.6187 0.130145M21.2495 39.7458L5.71937 34.8658L5.71921 34.8658C4.95175 34.6249 4.2492 34.2124 3.6648 33.6597C3.08046 33.1071 2.62959 32.4286 2.34635 31.6758L1.8783 31.8517M21.2495 39.7458L10.1694 16.4954M1.8783 31.8517L2.34628 31.6756L0.838566 27.6628C0.400089 26.4957 0.387125 25.2115 0.801953 24.0358C1.21678 22.8601 2.03284 21.8684 3.10662 21.2349L3.10673 21.2348L8.53476 18.0308L8.55853 18.0168L8.5806 18.0002L8.62419 17.9675L8.327 17.5654M1.8783 31.8517L0.370511 27.8387C-0.109338 26.5615 -0.123525 25.156 0.330443 23.8694C0.784412 22.5828 1.67747 21.4975 2.85256 20.8042L8.2806 17.6002M1.8783 31.8517C2.18825 32.6756 2.68169 33.4181 3.32123 34.023C3.96077 34.6279 4.72961 35.0792 5.56948 35.3428L8.2806 17.6002M8.327 17.5654L8.627 17.9654L8.62567 17.9664C8.73428 17.8861 8.84018 17.8022 8.94322 17.7148L8.94323 17.7148L8.94674 17.7118C9.3823 17.3355 9.79087 16.929 10.1694 16.4954M8.327 17.5654L8.2806 17.6002M8.327 17.5654C8.42717 17.4914 8.52484 17.414 8.61985 17.3334C9.03824 16.972 9.43065 16.5815 9.79419 16.1649C10.7945 15.0399 12.1661 13.1638 13.5434 10.2381L8.2806 17.6002M10.1694 16.4954C10.1689 16.496 10.1684 16.4965 10.1678 16.4971L9.79422 16.1649L10.1709 16.4936C10.1704 16.4942 10.1699 16.4948 10.1694 16.4954Z" fill="#F9F6F1" stroke="#58D1B7"/>
</svg>
