<svg width="17" height="17" viewBox="0 0 17 17" fill="none" xmlns="http://www.w3.org/2000/svg">
    <path fill-rule="evenodd" clip-rule="evenodd" d="M8.5 0C8.75048 0 8.99071 0.0995039 9.16782 0.276622C9.34494 0.453739 9.44444 0.693962 9.44444 0.944444V8.5C9.44444 8.75048 9.34494 8.99071 9.16782 9.16782C8.99071 9.34494 8.75048 9.44444 8.5 9.44444H0.944444C0.693962 9.44444 0.453739 9.34494 0.276622 9.16782C0.0995039 8.99071 0 8.75048 0 8.5C0 8.24952 0.0995039 8.0093 0.276622 7.83218C0.453739 7.65506 0.693962 7.55556 0.944444 7.55556H7.55556V0.944444C7.55556 0.693962 7.65506 0.453739 7.83218 0.276622C8.0093 0.0995039 8.24952 0 8.5 0Z" fill="#FFA305"/>
    <path fill-rule="evenodd" clip-rule="evenodd" d="M7.55566 8.49999C7.55566 8.2495 7.65517 8.00928 7.83229 7.83216C8.0094 7.65505 8.24963 7.55554 8.50011 7.55554H16.0557C16.3061 7.55554 16.5464 7.65505 16.7235 7.83216C16.9006 8.00928 17.0001 8.2495 17.0001 8.49999C17.0001 8.75047 16.9006 8.99069 16.7235 9.16781C16.5464 9.34493 16.3061 9.44443 16.0557 9.44443H9.44455V16.0555C9.44455 16.306 9.34505 16.5462 9.16793 16.7234C8.99081 16.9005 8.75059 17 8.50011 17C8.24963 17 8.0094 16.9005 7.83229 16.7234C7.65517 16.5462 7.55566 16.306 7.55566 16.0555V8.49999Z" fill="#FFA305"/>
</svg>
