<svg width="14" height="14" viewBox="0 0 14 14" fill="none" xmlns="http://www.w3.org/2000/svg">
<path fill-rule="evenodd" clip-rule="evenodd" d="M7.16608 12.8632C6.9933 13.036 6.75896 13.1331 6.51461 13.1331C6.27026 13.1331 6.03592 13.036 5.86314 12.8632L0.651398 7.65147C0.478618 7.47869 0.38155 7.24435 0.381551 7C0.38155 6.75565 0.478618 6.52131 0.651398 6.34853L5.86315 1.13678C6.03593 0.964004 6.27027 0.866937 6.51461 0.866937C6.75896 0.866937 6.9933 0.964004 7.16608 1.13678C7.33886 1.30956 7.43593 1.5439 7.43593 1.78825C7.43593 2.0326 7.33886 2.26694 7.16608 2.43972L2.6058 7L7.16608 11.5603C7.33886 11.7331 7.43593 11.9674 7.43593 12.2117C7.43593 12.4561 7.33886 12.6904 7.16608 12.8632Z" fill="#FFA305" fill-opacity="0.59"/>
</svg>
