<svg width="19" height="19" viewBox="0 0 19 19" fill="none" xmlns="http://www.w3.org/2000/svg">
    <path d="M12.4937 12.7191C12.5378 12.256 12.5245 11.7946 12.4575 11.3442L13.4988 10.8801C13.4005 10.3756 13.2458 9.87804 13.0313 9.3965C12.8168 8.9153 12.5504 8.46757 12.2417 8.05673L11.1997 8.52051C10.9098 8.16977 10.5758 7.85148 10.2022 7.57416L10.6106 6.50999C10.1841 6.22312 9.72301 5.98064 9.23088 5.79178C8.74081 5.60361 8.23741 5.47349 7.72547 5.40143L7.31668 6.46662C6.85358 6.42257 6.39219 6.43589 5.94173 6.50282L5.48034 5.46666C4.44964 5.66918 3.48656 6.10632 2.65974 6.73096L3.11806 7.76029C2.76664 8.05024 2.44834 8.38459 2.17103 8.75786L1.10959 8.35078C0.819984 8.77631 0.577165 9.2377 0.387964 9.72948C0.200471 10.2213 0.0720602 10.726 0 11.2346L1.06417 11.643C1.02011 12.1061 1.03343 12.5675 1.10037 13.018L0.0590826 13.4817C0.15744 13.9865 0.312147 14.4838 0.52662 14.9653C0.741435 15.4468 1.00748 15.8942 1.31655 16.3051L2.35784 15.8413C2.64779 16.1924 2.98179 16.5107 3.35575 16.788L2.9473 17.8528C3.37385 18.14 3.8349 18.3822 4.32703 18.571C4.81711 18.7592 5.32051 18.8893 5.83244 18.9614L6.24124 17.8962C6.70434 17.9399 7.16573 17.9266 7.61619 17.8597L8.07758 18.8955C9.10828 18.693 10.072 18.2558 10.8985 17.6312L10.4399 16.6018C10.7909 16.3119 11.1096 15.9779 11.3869 15.6043L12.4476 16.0114C12.7372 15.5858 12.9801 15.1244 13.1693 14.633C13.3581 14.1412 13.4862 13.6361 13.5583 13.1272L12.4937 12.7191ZM9.66495 13.2884C9.05329 14.8826 7.26545 15.6784 5.6709 15.0667C4.0784 14.4554 3.28164 12.6679 3.89296 11.074C4.50462 9.48017 6.29246 8.68444 7.88599 9.29541C9.47985 9.90673 10.2763 11.6949 9.66495 13.2884Z"
          fill="#FFA305"/>
    <path d="M18.2593 4.23312C18.2593 4.02684 18.2381 3.82501 18.2019 3.62898L19.0001 3.16793C18.8068 2.43298 18.4229 1.77488 17.898 1.25509L17.0978 1.71716C16.7925 1.45556 16.4387 1.25065 16.0517 1.11404V0.190916C15.6993 0.0942663 15.3301 0.0389404 14.948 0.0389404C14.5658 0.0389404 14.197 0.0949494 13.8442 0.190916V1.11438C13.4572 1.25099 13.1038 1.45624 12.7981 1.7175L11.9976 1.25543C11.4734 1.77522 11.0891 2.43332 10.8955 3.16827L11.694 3.62932C11.6578 3.82569 11.6363 4.02684 11.6363 4.23346C11.6363 4.44008 11.6578 4.64158 11.694 4.83761L10.8955 5.29866C11.0891 6.0336 11.4734 6.69205 11.9976 7.2115L12.7978 6.74942C13.1034 7.01103 13.4569 7.21594 13.8438 7.35254V8.27601C14.1966 8.37232 14.5655 8.42798 14.9476 8.42798C15.3298 8.42798 15.6993 8.37198 16.0514 8.27601V7.35254C16.4383 7.21594 16.7922 7.01069 17.0975 6.74942L17.8976 7.2115C18.4226 6.69171 18.8064 6.0336 18.9997 5.29866L18.2016 4.83761C18.2381 4.64089 18.2593 4.43974 18.2593 4.23312ZM14.9483 5.77883C14.0945 5.77883 13.4022 5.08692 13.4022 4.23346C13.4022 3.38001 14.0945 2.68775 14.9483 2.68775C15.8011 2.68775 16.4933 3.37967 16.4933 4.23312C16.4933 5.08657 15.8011 5.77883 14.9483 5.77883Z"
          fill="#FFA305"/>
</svg>
