<svg width="43" height="49" viewBox="0 0 43 49" fill="none" xmlns="http://www.w3.org/2000/svg">
<path d="M9.00097 15.5013H9.50097V15.0013V12.001C9.50097 8.95076 10.7127 6.02543 12.8695 3.86857C15.0264 1.71171 17.9517 0.5 21.002 0.5C24.0523 0.5 26.9776 1.71171 29.1345 3.86857C31.2913 6.02543 32.503 8.95076 32.503 12.001V15.0013V15.5013H33.003H36.0033C36.6188 15.5012 37.2127 15.7282 37.6713 16.1388C38.1299 16.5494 38.4209 17.1147 38.4886 17.7265L38.4886 17.7267L41.4888 44.7288C41.5275 45.0782 41.492 45.4319 41.3848 45.7667C41.2775 46.1015 41.1009 46.4099 40.8663 46.6718C40.6318 46.9337 40.3447 47.1432 40.0237 47.2866C39.7027 47.43 39.3551 47.5041 39.0036 47.5041H3.00046C2.64887 47.5041 2.30126 47.43 1.98029 47.2866C1.65931 47.1432 1.37219 46.9337 1.13766 46.6718C0.903138 46.4099 0.726477 46.1015 0.619216 45.7667C0.511954 45.4319 0.476502 45.0782 0.515173 44.7288L3.5154 17.7267L3.51543 17.7265C3.58314 17.1147 3.87413 16.5494 4.3327 16.1388C4.79126 15.7282 5.38517 15.5012 6.00068 15.5013H6.00072H9.00097ZM27.0025 15.5013H27.5025V15.0013V12.001C27.5025 10.277 26.8176 8.62355 25.5986 7.40447C24.3795 6.18539 22.726 5.50051 21.002 5.50051C19.278 5.50051 17.6245 6.18539 16.4054 7.40447C15.1864 8.62355 14.5015 10.277 14.5015 12.001V15.0013V15.5013H15.0015H27.0025ZM9.52617 21.527C8.86975 22.1834 8.50097 23.0737 8.50097 24.002C8.50097 24.9304 8.86975 25.8207 9.52617 26.4771C10.1826 27.1335 11.0729 27.5023 12.0012 27.5023C12.9296 27.5023 13.8199 27.1335 14.4763 26.4771C15.1327 25.8207 15.5015 24.9304 15.5015 24.002C15.5015 23.0737 15.1327 22.1834 14.4763 21.527C13.8199 20.8706 12.9296 20.5018 12.0012 20.5018C11.0729 20.5018 10.1826 20.8706 9.52617 21.527ZM30.0028 20.5018C29.0744 20.5018 28.1841 20.8706 27.5277 21.527C26.8713 22.1834 26.5025 23.0737 26.5025 24.002C26.5025 24.9304 26.8713 25.8207 27.5277 26.4771C28.1841 27.1335 29.0744 27.5023 30.0028 27.5023C30.9311 27.5023 31.8214 27.1335 32.4778 26.4771C33.1342 25.8207 33.503 24.9304 33.503 24.002C33.503 23.0737 33.1342 22.1834 32.4778 21.527C31.8214 20.8706 30.9311 20.5018 30.0028 20.5018Z" fill="#F9F6F1" stroke="#58D1B7"/>
</svg>
