<svg width="647" height="647" viewBox="0 0 647 647" fill="none" xmlns="http://www.w3.org/2000/svg">
<g filter="url(#filter0_f)">
<path d="M131.035 84.5907C141.825 84.109 152.212 89.006 161.472 97.034C163.082 98.3987 164.451 99.924 165.981 101.449C200.121 135.488 234.342 169.607 268.483 203.645C271.301 206.455 274.038 209.265 276.374 212.396C297.872 240.333 282.171 279.83 247.386 285.53C234.745 287.618 223.392 284.647 213.166 277.342C209.542 274.773 206.241 271.722 203.101 268.591C168.88 234.553 134.739 200.514 100.518 166.395C95.6873 161.579 91.2587 156.361 88.1989 150.179C75.5573 124.409 89.1652 93.9834 116.703 85.9554C120.89 84.8315 125.077 84.6709 131.035 84.5907Z" fill="#58D1B7"/>
</g>
<g filter="url(#filter1_f)">
<path d="M85.9259 214.894C98.7183 214.734 109.499 219.384 118.51 228.364C132.59 242.395 146.75 256.506 160.83 270.537C183.116 292.746 205.322 314.955 227.688 337.084C232.194 341.574 235.895 346.465 238.63 352.318C250.699 377.895 235.09 409.725 206.046 415.498C190.116 418.705 176.519 414.215 164.611 403.631C163.404 402.589 162.359 401.467 161.232 400.344C126.154 365.387 91.0751 330.43 55.9965 295.472C52.4565 291.945 49.0773 288.337 46.5027 284.007C30.4921 256.907 45.3764 222.591 76.5931 215.776C79.5699 215.055 82.7882 215.135 85.9259 214.894Z" fill="#DB8ED9"/>
</g>
<g filter="url(#filter2_f)">
<path d="M259.804 40C272.923 40.239 283.323 44.2219 292.122 52.5064C292.682 53.064 293.242 53.6217 293.802 54.1793C329.96 90.185 366.119 126.27 402.357 162.197C410.916 170.64 415.796 180.837 416.436 192.626C417.076 203.938 413.796 214.293 406.597 223.136C389.317 244.484 358.519 246.476 338.76 227.357C325.641 214.692 312.841 201.707 299.962 188.803C276.523 165.463 253.084 142.123 229.645 118.783C222.446 111.613 217.726 103.169 215.726 93.1324C213.806 83.4937 215.246 74.3329 219.486 65.8094C227.885 48.9218 241.965 40.5576 259.804 40Z" fill="#FFA305"/>
</g>
<g filter="url(#filter3_f)">
<path d="M203.882 600.317C191.727 600.157 181.492 596.23 172.776 588.295C171.416 587.093 170.137 585.73 168.858 584.448C133.834 549.343 98.7297 514.158 63.7057 479.053C59.2277 474.565 55.2296 469.836 52.4309 464.146C38.917 436.655 56.7489 405.878 82.8969 399.947C98.6497 396.421 112.243 400.428 124.398 410.687C125.997 412.05 127.437 413.573 128.876 415.095C163.74 450.04 198.604 484.984 233.468 519.929C236.267 522.734 239.065 525.459 241.144 528.745C251.14 544.133 252.259 560.163 243.543 576.273C235.147 592.062 221.393 599.916 203.882 600.317Z" fill="#FFA305"/>
</g>
<g filter="url(#filter4_f)">
<path d="M562.755 432.11C549.834 431.55 539.226 427.307 530.213 418.981C528.857 417.781 527.581 416.5 526.304 415.139C492.406 381.117 458.587 347.175 424.688 313.153C421.338 309.791 418.308 306.268 415.596 302.426C397.968 277.209 410.571 239.505 442.874 232.701C459.385 229.258 473.343 233.981 485.068 245.509C503.652 263.761 521.918 282.413 540.342 300.905C557.092 317.716 573.842 334.527 590.592 351.338C593.543 354.299 596.175 357.502 598.808 360.784C611.569 377.354 608.778 403.611 594.899 417.701C585.647 427.067 574.799 431.47 562.755 432.11Z" fill="#DB8ED9"/>
</g>
<g filter="url(#filter5_f)">
<path d="M276.596 406.489C288.611 406.649 298.623 411.134 307.434 418.741C308.235 419.381 308.956 420.182 309.676 420.903C345.721 456.936 381.765 492.969 417.809 529.002C420.612 531.804 423.095 534.767 425.178 538.13C442.479 566.076 425.418 600.267 395.862 606.033C380.243 609.076 366.706 604.912 355.573 593.942C318.487 557.108 281.722 519.954 244.557 483.2C231.1 469.828 224.612 443.243 242.714 421.943C251.525 411.614 263.38 407.13 276.596 406.489Z" fill="#58D1B7"/>
</g>
<g filter="url(#filter6_f)">
<path d="M409.966 363.045C420.234 363.365 431.059 367.689 440.213 376.977C471.655 408.845 503.335 440.553 534.936 472.341C539.871 477.306 544.886 482.27 549.821 487.314C568.606 506.531 566.457 538.8 543.134 555.134C525.225 567.625 504.211 565.944 487.654 551.931C486.301 550.73 485.027 549.449 483.754 548.088C448.491 512.617 413.229 477.145 377.967 441.674C371.201 434.868 366.425 427.021 364.117 417.573C360.137 401.639 367.062 377.938 387.917 367.769C394.285 364.726 401.13 363.125 409.966 363.045Z" fill="#FFA305"/>
</g>
<g filter="url(#filter7_f)">
<path d="M596.912 204.282C598.111 226.33 581.801 246.785 555.256 249.253C543.743 250.288 533.109 246.547 524.074 238.985C522.715 237.791 521.436 236.518 520.156 235.244C483.857 199.108 447.558 162.893 411.099 126.757C404.543 120.309 400.065 112.907 398.466 103.993C392.07 68.1749 421.493 48.5946 444.68 50.1069C455.713 50.8233 465.388 55.1214 473.623 62.4441C474.822 63.4788 475.862 64.5932 476.981 65.7075C511.681 100.252 546.301 134.716 581.001 169.26C583.16 171.489 585.319 173.797 587.318 176.185C594.034 184.383 597.232 193.775 596.912 204.282Z" fill="#58D1B7"/>
</g>
<defs>
<filter id="filter0_f" x="43.4443" y="44.5581" width="282.739" height="281.625" filterUnits="userSpaceOnUse" color-interpolation-filters="sRGB">
<feFlood flood-opacity="0" result="BackgroundImageFix"/>
<feBlend mode="normal" in="SourceGraphic" in2="BackgroundImageFix" result="shape"/>
<feGaussianBlur stdDeviation="20" result="effect1_foregroundBlur"/>
</filter>
<filter id="filter1_f" x="0" y="174.89" width="282.739" height="281.625" filterUnits="userSpaceOnUse" color-interpolation-filters="sRGB">
<feFlood flood-opacity="0" result="BackgroundImageFix"/>
<feBlend mode="normal" in="SourceGraphic" in2="BackgroundImageFix" result="shape"/>
<feGaussianBlur stdDeviation="20" result="effect1_foregroundBlur"/>
</filter>
<filter id="filter2_f" x="174.89" y="0" width="281.625" height="280.511" filterUnits="userSpaceOnUse" color-interpolation-filters="sRGB">
<feFlood flood-opacity="0" result="BackgroundImageFix"/>
<feBlend mode="normal" in="SourceGraphic" in2="BackgroundImageFix" result="shape"/>
<feGaussianBlur stdDeviation="20" result="effect1_foregroundBlur"/>
</filter>
<filter id="filter3_f" x="7.79785" y="358.692" width="281.625" height="281.625" filterUnits="userSpaceOnUse" color-interpolation-filters="sRGB">
<feFlood flood-opacity="0" result="BackgroundImageFix"/>
<feBlend mode="normal" in="SourceGraphic" in2="BackgroundImageFix" result="shape"/>
<feGaussianBlur stdDeviation="20" result="effect1_foregroundBlur"/>
</filter>
<filter id="filter4_f" x="367.604" y="191.599" width="279.397" height="280.511" filterUnits="userSpaceOnUse" color-interpolation-filters="sRGB">
<feFlood flood-opacity="0" result="BackgroundImageFix"/>
<feBlend mode="normal" in="SourceGraphic" in2="BackgroundImageFix" result="shape"/>
<feGaussianBlur stdDeviation="20" result="effect1_foregroundBlur"/>
</filter>
<filter id="filter5_f" x="191.6" y="366.489" width="280.511" height="280.511" filterUnits="userSpaceOnUse" color-interpolation-filters="sRGB">
<feFlood flood-opacity="0" result="BackgroundImageFix"/>
<feBlend mode="normal" in="SourceGraphic" in2="BackgroundImageFix" result="shape"/>
<feGaussianBlur stdDeviation="20" result="effect1_foregroundBlur"/>
</filter>
<filter id="filter6_f" x="323.045" y="323.045" width="279.397" height="280.511" filterUnits="userSpaceOnUse" color-interpolation-filters="sRGB">
<feFlood flood-opacity="0" result="BackgroundImageFix"/>
<feBlend mode="normal" in="SourceGraphic" in2="BackgroundImageFix" result="shape"/>
<feGaussianBlur stdDeviation="20" result="effect1_foregroundBlur"/>
</filter>
<filter id="filter7_f" x="357.577" y="10.0254" width="279.397" height="279.397" filterUnits="userSpaceOnUse" color-interpolation-filters="sRGB">
<feFlood flood-opacity="0" result="BackgroundImageFix"/>
<feBlend mode="normal" in="SourceGraphic" in2="BackgroundImageFix" result="shape"/>
<feGaussianBlur stdDeviation="20" result="effect1_foregroundBlur"/>
</filter>
</defs>
</svg>
