<svg width="17" height="18" viewBox="0 0 17 18" fill="none" xmlns="http://www.w3.org/2000/svg">
    <path d="M8.2506 0.25C8.97825 0.249952 9.67834 0.52835 10.2072 1.02808C10.7362 1.52782 11.0538 2.211 11.095 2.93748L11.0994 3.09877H15.7012C15.8678 3.09882 16.0281 3.16209 16.1498 3.2758C16.2715 3.38952 16.3455 3.54519 16.3569 3.71136C16.3682 3.87754 16.3161 4.04183 16.211 4.17104C16.1059 4.30025 15.9556 4.38474 15.7906 4.40744L15.7012 4.41358H15.0035L13.8815 15.8262C13.8253 16.3951 13.5687 16.9256 13.1575 17.3228C12.7463 17.7201 12.2073 17.9582 11.6367 17.9947L11.4824 18H5.01879C4.44681 18 3.89347 17.7966 3.45767 17.4261C3.02186 17.0557 2.73199 16.5423 2.63985 15.9778L2.61969 15.8253L1.49684 4.41358H0.799986C0.641123 4.41357 0.487636 4.35604 0.367911 4.25162C0.248185 4.14721 0.170319 4.00297 0.148714 3.84558L0.142578 3.75617C0.142585 3.59731 0.200117 3.44382 0.304534 3.3241C0.408952 3.20437 0.553192 3.12651 0.710578 3.1049L0.799986 3.09877H5.40184C5.40184 2.34323 5.70197 1.61863 6.23622 1.08438C6.77047 0.550137 7.49506 0.25 8.2506 0.25ZM13.6825 4.41358H2.81779L3.92837 15.6964C3.95296 15.9482 4.0639 16.1837 4.24237 16.363C4.42083 16.5422 4.65582 16.6542 4.90747 16.6799L5.01879 16.6852H11.4824C12.0083 16.6852 12.4545 16.3127 12.5562 15.8069L12.5737 15.6964L13.6817 4.41358H13.6825ZM9.78455 6.82407C9.94342 6.82408 10.0969 6.88161 10.2166 6.98603C10.3364 7.09045 10.4142 7.23469 10.4358 7.39207L10.442 7.48148V13.6173C10.4419 13.7838 10.3786 13.9442 10.2649 14.0659C10.1512 14.1876 9.99554 14.2616 9.82936 14.273C9.66319 14.2843 9.49889 14.2322 9.36969 14.1271C9.24048 14.0219 9.15599 13.8717 9.13328 13.7067L9.12715 13.6173V7.48148C9.12715 7.30713 9.19641 7.13991 9.3197 7.01662C9.44298 6.89334 9.6102 6.82407 9.78455 6.82407ZM6.71665 6.82407C6.87551 6.82408 7.029 6.88161 7.14873 6.98603C7.26845 7.09045 7.34632 7.23469 7.36792 7.39207L7.37406 7.48148V13.6173C7.37401 13.7838 7.31073 13.9442 7.19702 14.0659C7.08331 14.1876 6.92764 14.2616 6.76146 14.273C6.59528 14.2843 6.43099 14.2322 6.30179 14.1271C6.17258 14.0219 6.08808 13.8717 6.06538 13.7067L6.05925 13.6173V7.48148C6.05925 7.30713 6.12851 7.13991 6.2518 7.01662C6.37508 6.89334 6.5423 6.82407 6.71665 6.82407ZM8.2506 1.56481C7.86563 1.56483 7.49474 1.70959 7.21156 1.97037C6.92837 2.23115 6.75359 2.58888 6.72191 2.97254L6.71665 3.09877H9.78455C9.78455 2.69194 9.62294 2.30177 9.33527 2.0141C9.0476 1.72643 8.65743 1.56481 8.2506 1.56481Z" fill="#FFA305" fill-opacity="0.5"/>
</svg>
