<svg width="17" height="18" viewBox="0 0 17 18" fill="none" xmlns="http://www.w3.org/2000/svg">
    <path d="M8.2506 6.11405e-09C8.97825 -4.76373e-05 9.67834 0.27835 10.2072 0.778083C10.7362 1.27782 11.0538 1.961 11.095 2.68748L11.0994 2.84877H15.7012C15.8678 2.84882 16.0281 2.91209 16.1498 3.0258C16.2715 3.13952 16.3455 3.29519 16.3569 3.46136C16.3682 3.62754 16.3161 3.79183 16.211 3.92104C16.1059 4.05025 15.9556 4.13474 15.7906 4.15744L15.7012 4.16358H15.0035L13.8815 15.5762C13.8253 16.1451 13.5687 16.6756 13.1575 17.0728C12.7463 17.4701 12.2073 17.7082 11.6367 17.7447L11.4824 17.75H5.01879C4.44681 17.75 3.89347 17.5466 3.45767 17.1761C3.02186 16.8057 2.73199 16.2923 2.63985 15.7278L2.61969 15.5753L1.49684 4.16358H0.799986C0.641123 4.16357 0.487636 4.10604 0.367911 4.00162C0.248185 3.89721 0.170319 3.75297 0.148714 3.59558L0.142578 3.50617C0.142585 3.34731 0.200117 3.19382 0.304534 3.0741C0.408952 2.95437 0.553192 2.87651 0.710578 2.8549L0.799986 2.84877H5.40184C5.40184 2.09323 5.70197 1.36863 6.23622 0.834384C6.77047 0.300137 7.49506 6.11405e-09 8.2506 6.11405e-09ZM13.6825 4.16358H2.81779L3.92837 15.4464C3.95296 15.6982 4.0639 15.9337 4.24237 16.113C4.42083 16.2922 4.65582 16.4042 4.90747 16.4299L5.01879 16.4352H11.4824C12.0083 16.4352 12.4545 16.0627 12.5562 15.5569L12.5737 15.4464L13.6817 4.16358H13.6825ZM9.78455 6.57407C9.94342 6.57408 10.0969 6.63161 10.2166 6.73603C10.3364 6.84045 10.4142 6.98469 10.4358 7.14207L10.442 7.23148V13.3673C10.4419 13.5338 10.3786 13.6942 10.2649 13.8159C10.1512 13.9376 9.99554 14.0116 9.82936 14.023C9.66319 14.0343 9.49889 13.9822 9.36969 13.8771C9.24048 13.7719 9.15599 13.6217 9.13328 13.4567L9.12715 13.3673V7.23148C9.12715 7.05713 9.19641 6.88991 9.3197 6.76662C9.44298 6.64334 9.6102 6.57407 9.78455 6.57407ZM6.71665 6.57407C6.87551 6.57408 7.029 6.63161 7.14873 6.73603C7.26845 6.84045 7.34632 6.98469 7.36792 7.14207L7.37406 7.23148V13.3673C7.37401 13.5338 7.31073 13.6942 7.19702 13.8159C7.08331 13.9376 6.92764 14.0116 6.76146 14.023C6.59528 14.0343 6.43099 13.9822 6.30179 13.8771C6.17258 13.7719 6.08808 13.6217 6.06538 13.4567L6.05925 13.3673V7.23148C6.05925 7.05713 6.12851 6.88991 6.2518 6.76662C6.37508 6.64334 6.5423 6.57407 6.71665 6.57407ZM8.2506 1.31481C7.86563 1.31483 7.49474 1.45959 7.21156 1.72037C6.92837 1.98115 6.75359 2.33888 6.72191 2.72254L6.71665 2.84877H9.78455C9.78455 2.44194 9.62294 2.05177 9.33527 1.7641C9.0476 1.47643 8.65743 1.31481 8.2506 1.31481Z" fill="#FFA305"/>
</svg>
