<svg width="56" height="42" viewBox="0 0 56 42" fill="none" xmlns="http://www.w3.org/2000/svg">
<path d="M38.1919 41.1639H38.1915H38.1911L38.1905 41.1639H3.47333L3.47282 41.1639H3.47244H3.47199L3.4701 41.1639L3.44966 41.1634C3.43013 41.1627 3.39917 41.1613 3.35843 41.1584C3.27679 41.1526 3.15689 41.1407 3.01169 41.1165C2.71894 41.0677 2.33625 40.971 1.9596 40.7827C1.58492 40.5954 1.22545 40.3222 0.958524 39.9218C0.69369 39.5246 0.5 38.9724 0.5 38.1919C0.5 36.5843 1.31827 33.2408 4.25955 30.2995C7.18617 27.3729 12.2574 24.804 20.832 24.804C29.4065 24.804 34.4778 27.3729 37.4044 30.2995C40.3457 33.2408 41.1639 36.5843 41.1639 38.1919C41.1639 38.9724 40.9702 39.5246 40.7054 39.9218C40.4385 40.3222 40.079 40.5954 39.7043 40.7827C39.3277 40.971 38.945 41.0677 38.6522 41.1165C38.507 41.1407 38.3871 41.1526 38.3055 41.1584C38.2648 41.1613 38.2338 41.1627 38.2143 41.1634L38.1938 41.1639L38.1919 41.1639ZM27.8436 17.4276C25.984 19.2873 23.4618 20.332 20.832 20.332C18.2021 20.332 15.6799 19.2873 13.8203 17.4276C11.9607 15.568 10.916 13.0459 10.916 10.416C10.916 7.7861 11.9607 5.26393 13.8203 3.40432C15.6799 1.54472 18.2021 0.5 20.832 0.5C23.4618 0.5 25.984 1.54472 27.8436 3.40432C29.7032 5.26393 30.7479 7.7861 30.7479 10.416C30.7479 13.0459 29.7032 15.568 27.8436 17.4276Z" fill="#F9F6F1" stroke="#58D1B7"/>
<path d="M48.1079 17.36V17.86H48.6079H53.8159C54.1437 17.86 54.4581 17.9902 54.6899 18.222C54.9216 18.4538 55.0519 18.7682 55.0519 19.096C55.0519 19.4238 54.9216 19.7382 54.6899 19.97C54.4581 20.2018 54.1437 20.332 53.8159 20.332H48.6079H48.1079V20.832V26.04C48.1079 26.3678 47.9777 26.6822 47.7459 26.914C47.5141 27.1458 47.1997 27.276 46.8719 27.276C46.5441 27.276 46.2297 27.1458 45.9979 26.914C45.7661 26.6822 45.6359 26.3678 45.6359 26.04V20.832V20.332H45.1359H39.9279C39.6001 20.332 39.2857 20.2018 39.0539 19.97C38.8221 19.7382 38.6919 19.4238 38.6919 19.096C38.6919 18.7682 38.8221 18.4538 39.0539 18.222C39.2857 17.9902 39.6001 17.86 39.9279 17.86H45.1359H45.6359V17.36V12.152C45.6359 11.8242 45.7661 11.5098 45.9979 11.278C46.2297 11.0462 46.5441 10.916 46.8719 10.916C47.1997 10.916 47.5141 11.0462 47.7459 11.278C47.9777 11.5098 48.1079 11.8242 48.1079 12.152V17.36Z" fill="#F9F6F1" stroke="#58D1B7"/>
</svg>
